<!--?xml version="1.0" standalone="no"?--><svg version="1.0" xmlns="http://www.w3.org/2000/svg" width="300.000000pt" height="300.000000pt" viewBox="0 0 300.000000 300.000000" preserveAspectRatio="xMidYMid meet">
<metadata>
  <rdf:rdf xmlns:rdf="http://www.w3.org/1999/02/22-rdf-syntax-ns#" xmlns:rdfs="http://www.w3.org/2000/01/rdf-schema#" xmlns:dc="http://purl.org/dc/elements/1.1/">
    <rdf:description dc:title="stairs walking man" dc:publisher="Hiox" dc:date="2015-04-04" dc:format="image/svg+xml" dc:language="en">
      <dc:creator>
        <rdf:bag>
          <rdf:li>svgimages.com</rdf:li>
        </rdf:bag>
      </dc:creator>
    </rdf:description>
  </rdf:rdf>
</metadata>
<g transform="translate(0.000000,300.000000) scale(0.100000,-0.100000)" fill="#e2e2e2" stroke="none">
<path class="node" id="node1" d="M1090 2583 c-8 -3 -26 -15 -38 -27 -54 -48 -66 -115 -33 -176 68
-128 265 -77 265 69 0 56 -20 93 -67 121 -31 19 -93 25 -127 13z"></path>
<path class="node" id="node2" d="M2500 2195 l0 -125 -158 0 c-110 0 -162 -4 -170 -12 -8 -8 -12 -52
-12 -130 l0 -118 -162 -2 -163 -3 -5 -125 -5 -125 -162 -3 -163 -2 0 -125 0
-125 -77 0 c-65 0 -74 2 -59 13 23 17 33 68 42 212 l7 122 -38 42 c-20 22 -59
57 -86 77 -48 35 -49 37 -49 90 0 30 4 54 10 54 5 0 38 -14 73 -31 74 -37 113
-35 123 6 3 14 4 32 0 40 -3 8 -52 37 -109 64 l-104 48 -7 74 c-7 83 -22 145
-36 154 -5 3 -6 -9 -3 -28 4 -24 -2 -48 -20 -83 -44 -87 -43 -101 7 -228 51
-125 51 -155 2 -177 -48 -22 -75 -4 -111 73 l-33 72 -7 -67 c-4 -36 -5 -77 -1
-91 9 -37 -29 -295 -68 -460 -37 -154 -43 -200 -26 -211 23 -14 7 -24 -42 -27
l-53 -3 -5 -125 -5 -125 -162 -3 -162 -2 -3 -123 -3 -122 -152 -3 -153 -3 0
-29 0 -30 178 2 177 3 5 125 5 125 165 5 165 5 3 123 3 122 148 0 c82 0 156 3
165 6 13 5 16 26 16 130 l0 124 163 2 162 3 5 125 5 125 160 3 c112 2 161 6
167 15 4 6 8 63 8 125 l0 112 153 0 c106 0 157 4 165 12 8 8 12 52 12 130 l0
118 163 2 162 3 5 125 5 125 163 3 162 2 0 25 0 25 -190 0 -190 0 0 -125z
m-1267 -577 c31 -22 34 -54 16 -184 -10 -72 -9 -79 11 -106 l21 -28 -49 0
c-26 0 -53 -5 -60 -12 -8 -8 -12 -52 -12 -130 l0 -118 -60 0 -59 0 14 28 c12
22 65 262 115 525 12 60 11 60 63 25z"></path>
<path class="node" id="node3" d="M1081 2249 c-26 -29 -61 -120 -68 -180 -6 -52 10 -110 63 -227 35
-76 48 -88 88 -78 42 10 41 39 -8 159 -50 126 -51 149 -1 246 20 40 22 51 12
72 -17 33 -59 37 -86 8z"></path>
</g>
<g transform="translate(0.000000,300.000000) scale(0.100000,-0.100000)" fill="#A0A0A0" stroke="none">


</g>
</svg>